<?xml version="1.0" encoding="utf-8"?>
<!-- Generator: Adobe Illustrator 24.2.1, SVG Export Plug-In . SVG Version: 6.00 Build 0)  -->
<svg version="1.1" id="Capa_1" xmlns="http://www.w3.org/2000/svg" xmlns:xlink="http://www.w3.org/1999/xlink" x="0px" y="0px"
	 viewBox="0 0 815.4 251.9" style="enable-background:new 0 0 815.4 251.9;" xml:space="preserve">
<style type="text/css">
	.st0{enable-background:new    ;}
	.st1{fill:#007BEA;}
</style>
<g id="Capa_2_1_">
	<g id="Capa_1-2">
		<g class="st0">
			<path class="st1" d="M303.2,64.4v30.5h-12.7V16.4h26.7c9,0,15.8,2.1,20.4,6.4c4.6,4.3,6.8,10.2,6.8,17.7c0,7.4-2.3,13.2-7,17.5
				c-4.7,4.3-11.4,6.4-20.2,6.4H303.2z M331.5,40.5c0-4.4-1.2-7.8-3.7-10.2c-2.5-2.3-6.5-3.5-11.9-3.5h-12.7v27.2h12.7
				C326.3,54.1,331.5,49.6,331.5,40.5z"/>
			<path class="st1" d="M402.3,77.9h-33.1l-6,17h-13.6l28.9-77.2h14.6l28.8,77.2h-13.6L402.3,77.9z M398.8,68.1l-13-36.7l-13,36.7
				H398.8z"/>
			<path class="st1" d="M490.3,23c6.4,4.9,10.7,11.5,12.9,19.9h-13.4c-1.9-4.7-4.8-8.5-8.8-11.3c-4-2.8-9-4.2-14.8-4.2
				c-4.7,0-8.8,1.1-12.5,3.4c-3.7,2.3-6.6,5.6-8.7,9.8c-2.1,4.3-3.2,9.2-3.2,14.9c0,5.6,1.1,10.6,3.2,14.8c2.1,4.3,5,7.5,8.7,9.8
				c3.7,2.3,7.8,3.4,12.5,3.4c5.9,0,10.8-1.4,14.8-4.2c4-2.8,7-6.5,8.8-11.2h13.4c-2.2,8.4-6.5,15-12.9,19.8
				c-6.4,4.9-14.4,7.3-24,7.3c-7.4,0-14-1.7-19.7-5.1c-5.7-3.4-10.1-8.1-13.2-14.1c-3.1-6-4.7-12.9-4.7-20.7s1.6-14.7,4.7-20.7
				c3.1-6,7.5-10.8,13.2-14.2c5.7-3.4,12.3-5.1,19.7-5.1C476,15.6,484,18.1,490.3,23z"/>
			<path class="st1" d="M528.6,16.4v78.5h-12.7V16.4H528.6z"/>
			<path class="st1" d="M556.6,26.6v23.8h28.9v9.8h-28.9v24.3h32.2v10.3h-44.9V16.4h44.9v10.2H556.6z"/>
			<path class="st1" d="M664.6,94.9h-12.7L613.8,37v57.9h-12.7V16.5h12.7l38.1,58.1V16.5h12.7V94.9z"/>
			<path class="st1" d="M730.4,16.4v10.2h-21.9v68.2h-12.8V26.6h-21.8V16.4H730.4z"/>
			<path class="st1" d="M752.5,26.6v23.8h28.9v9.8h-28.9v24.3h32.2v10.3h-44.9V16.4h44.9v10.2H752.5z"/>
		</g>
		<path class="st1" d="M332.8,104.1v115.6c0,8.7-7,15.7-15.7,15.7c0,0,0,0,0,0h-25.5V119.8c0-8.7,7-15.7,15.7-15.7l0,0H332.8z"/>
		<path class="st1" d="M465.7,203.2c-5.5,10-13.8,18.2-23.8,23.6c-10.3,5.8-22.4,8.6-36.1,8.6H351V117.7c0-7.5,6.1-13.6,13.6-13.6
			h41.1c13.7,0,25.8,2.8,36.1,8.3c10,5.3,18.3,13.3,23.8,23.2c5.6,9.9,8.4,21.2,8.4,33.8C474.2,181.2,471.3,192.9,465.7,203.2z
			 M424.1,191.2c5.4-5.1,8.2-12.3,8.2-21.7c0-9.4-2.7-16.6-8.2-21.7c-5.4-5.1-12.8-7.6-22.1-7.6h-9.8v58.6h9.8
			C411.3,198.8,418.7,196.2,424.1,191.2L424.1,191.2z"/>
		<path class="st1" d="M529.7,136.8v16.3h40.8v19.1c0,6.6-5.3,11.9-11.9,11.9h-28.9v18.6H576v20.9c0,6.6-5.3,11.9-11.9,11.9h-75.7
			V116.8c0-7,5.6-12.6,12.6-12.6c0,0,0,0,0,0H576v20.7c0,6.6-5.3,11.9-11.9,11.9H529.7z"/>
		<path class="st1" d="M675.5,215.6h-43.8l-4.2,12.7c-1.4,4.3-5.4,7.2-9.9,7.2H582L626.4,114c2.2-5.9,7.8-9.9,14.1-9.9h37
			l43.1,118.2c1.9,5.1-0.8,10.7-5.9,12.6c-1.1,0.4-2.2,0.6-3.3,0.6H682L675.5,215.6z M665.5,184.6l-11.9-36.5l-11.9,36.6
			L665.5,184.6z"/>
		<path class="st1" d="M775.5,204.3h23.8v18.5c0,7-5.7,12.6-12.6,12.6l0,0h-52.3V116.8c0-7,5.7-12.6,12.6-12.6h28.6V204.3z"/>
		<path class="st1" d="M239.7,149c0,29.1,0,58.2,0,87.3c0,9.9-1.5,14.6-4.7,14.6c-14,0.1-27.9,0.1-41.9,0c-3.7,0-5.7-5.7-5.7-16.2
			c0-55.1,0-110.2,0.1-165.2c0-5.3,0.4-11.8,1.5-15.6s3.2-6.3,4.9-6.4c13.6-0.5,27.1-0.3,40.7-0.3c3.6,0,5.1,4.8,5.1,15.4L239.7,149
			z"/>
		<path class="st1" d="M129,90.6h27.1l-0.2-35.3c0-4.4-3.6-8-8-8h-38.8V8.5c0-4.4-3.6-8-8-8H55.6c-4.4,0-8,3.6-8,8v38.7H8.8
			c-4.4,0-8,3.6-8,8v45.5c0,4.4,3.6,8,8,8h38.7v38.7c0,3.2,1.1,6,3.9,7.3v-12.2c0-4.6,4.6-8.4,9.2-8.4h45.4c1,0,2,0.2,3,0.6v-26
			l6.8,0.1v-6C115.8,96.1,122.2,90.6,129,90.6z"/>
		<path class="st1" d="M167.4,98h-37.6c-4.1,0-7.4,3.3-7.4,7.4v139.1c0,4.1,3.3,7.4,7.4,7.4h37.6c4.1,0,7.4-3.3,7.4-7.4V105.4
			C174.8,101.3,171.5,98,167.4,98C167.4,98,167.4,98,167.4,98z"/>
		<path class="st1" d="M109.9,143.4c-0.6-1.1-1.8-1.8-3-1.7H61.5c-1.9,0-3.4,1.5-3.4,3.4l0,0v103.4c0,1.9,1.5,3.4,3.4,3.4l0,0H107
			c1.9,0,3.4-1.5,3.4-3.4l0,0V145.1C110.4,144.5,110.2,143.9,109.9,143.4z"/>
		<path class="st1" d="M4.2,184h38.7c2.3,0,4.2,1.9,4.2,4.2v59.6c0,2.3-1.9,4.2-4.2,4.2H4.2c-2.3,0-4.2-1.9-4.2-4.2v-59.6
			C0,185.8,1.9,184,4.2,184z"/>
	</g>
</g>
</svg>
