<?xml version="1.0" encoding="utf-8"?>
<!-- Generator: Adobe Illustrator 24.2.1, SVG Export Plug-In . SVG Version: 6.00 Build 0)  -->
<svg version="1.1" id="Capa_1" xmlns="http://www.w3.org/2000/svg" xmlns:xlink="http://www.w3.org/1999/xlink" x="0px" y="0px"
	 viewBox="0 0 851.2 252.1" style="enable-background:new 0 0 851.2 252.1;" xml:space="preserve">
<style type="text/css">
	.st0{enable-background:new    ;}
	.st1{fill:#007BEA;}
</style>
<g id="Capa_2_1_">
	<g id="Capa_1-2">
		<g class="st0">
			<path class="st1" d="M377.1,66.2v28.2h-11.7V21.7H390c8.4,0,14.7,2,18.9,6c4.2,4,6.3,9.4,6.3,16.4c0,6.9-2.2,12.3-6.5,16.2
				c-4.3,3.9-10.6,5.9-18.7,5.9H377.1z M403.3,44.1c0-4.1-1.1-7.3-3.4-9.4c-2.3-2.2-6-3.2-11.1-3.2h-11.7v25.2h11.7
				C398.4,56.6,403.3,52.4,403.3,44.1z"/>
			<path class="st1" d="M468.8,78.6h-30.7l-5.6,15.7H420l26.7-71.5h13.5l26.6,71.5h-12.5L468.8,78.6z M465.5,69.6l-12-33.9l-12,33.9
				H465.5z"/>
			<path class="st1" d="M550.3,27.8c5.9,4.5,9.9,10.7,11.9,18.4h-12.4c-1.7-4.4-4.4-7.9-8.2-10.4c-3.7-2.6-8.3-3.9-13.7-3.9
				c-4.3,0-8.2,1.1-11.6,3.2c-3.4,2.1-6.1,5.2-8,9.1c-2,3.9-2.9,8.6-2.9,13.8c0,5.2,1,9.8,2.9,13.7c2,3.9,4.6,7,8,9.1
				c3.4,2.1,7.3,3.2,11.6,3.2c5.4,0,10-1.3,13.7-3.9c3.7-2.6,6.5-6,8.2-10.3h12.4c-2.1,7.8-6,13.9-11.9,18.4
				C544.4,92.7,537,95,528,95c-6.9,0-12.9-1.6-18.2-4.7c-5.3-3.1-9.4-7.5-12.2-13.1c-2.9-5.6-4.3-12-4.3-19.2s1.4-13.6,4.3-19.2
				c2.9-5.6,7-10,12.2-13.1c5.3-3.2,11.3-4.7,18.2-4.7C537,21,544.4,23.3,550.3,27.8z"/>
			<path class="st1" d="M585.7,21.7v72.6h-11.7V21.7H585.7z"/>
			<path class="st1" d="M611.6,31.2v22h26.7v9.1h-26.7v22.5h29.8v9.6h-41.6V21.7h41.6v9.5H611.6z"/>
			<path class="st1" d="M711.6,94.4h-11.7l-35.3-53.6v53.6h-11.7V21.8h11.7l35.3,53.8V21.8h11.7V94.4z"/>
			<path class="st1" d="M772.4,21.7v9.5h-20.3v63.2h-11.8V31.2h-20.2v-9.5H772.4z"/>
			<path class="st1" d="M792.9,31.2v22h26.7v9.1h-26.7v22.5h29.8v9.6h-41.6V21.7h41.6v9.5H792.9z"/>
		</g>
		<path class="st1" d="M399.9,103v107c0,8-6.5,14.5-14.5,14.5h-23.6v-107c0-8,6.5-14.5,14.5-14.5c0,0,0,0,0,0H399.9z"/>
		<path class="st1" d="M522.8,194.6c-5.1,9.2-12.8,16.8-22.1,21.9c-9.6,5.3-20.7,8-33.4,8h-50.7v-109c0-6.9,5.6-12.5,12.6-12.5h38.1
			c12.7,0,23.8,2.6,33.4,7.7c9.3,4.9,16.9,12.3,22.1,21.5c5.2,9.1,7.7,19.6,7.7,31.3C530.7,174.3,528,185.1,522.8,194.6z
			 M484.4,183.5c5-4.7,7.6-11.4,7.6-20.1s-2.5-15.4-7.6-20.1c-5-4.7-11.9-7-20.4-7h-9.1v54.3h9.1
			C472.5,190.5,479.3,188.2,484.4,183.5L484.4,183.5z"/>
		<path class="st1" d="M582.1,133.2v15.1h37.8v17.6c0,6.1-4.9,11-11,11h-26.8v17.2H625v19.4c0,6.1-4.9,11-11,11h-70V114.7
			c0-6.4,5.2-11.6,11.7-11.7H625v19.2c0,6.1-4.9,11-11,11L582.1,133.2z"/>
		<path class="st1" d="M717,206.1h-40.5l-3.8,11.7c-1.3,4-5,6.6-9.2,6.6h-33l41.1-112.4c2-5.5,7.2-9.1,13-9.1h34.2l39.9,109.4
			c1.7,4.7-0.7,9.9-5.4,11.6c-1,0.4-2.1,0.6-3.1,0.6H723L717,206.1z M707.7,177.5l-11-33.8l-11,33.8H707.7z"/>
		<path class="st1" d="M809.6,195.7h22v17.1c0,6.5-5.2,11.7-11.7,11.7l0,0h-48.4V114.7c0-6.4,5.2-11.7,11.7-11.7h26.4V195.7z"/>
		<path class="st1" d="M298.4,23.5C281.8,7.8,257.9,0,226.8,0H88.4v40h25.2v58.2h58.6v54.5h-58.6v58.2H88.4v41.3h106.8V172h31.6
			c20.6,0,38.1-3.8,52.6-11.4c14.5-7.6,25.4-17.9,32.9-30.8c7.4-12.9,11.1-27.4,11.1-43.3C323.3,60.2,315,39.2,298.4,23.5z
			 M217.8,109.7h-22.6V63.4h22.6c16.5,0,24.8,7.7,24.8,23.1S234.3,109.7,217.8,109.7z"/>
		<polygon class="st1" points="88.4,41.3 88.4,40 58.6,40 58.6,98.2 0,98.2 0,152.6 58.6,152.6 58.6,210.8 88.4,210.8 88.4,207.9 		
			"/>
	</g>
</g>
</svg>
