<svg xmlns="http://www.w3.org/2000/svg" viewBox="0 0 124.82 37.84"><defs><style>.cls-1{fill:#007bea;}</style></defs><g id="Capa_2" data-name="Capa 2"><g id="Capa_1-2" data-name="Capa 1"><path class="cls-1" d="M56.59,9.93v4.23H54.83V3.26h3.71a4,4,0,0,1,2.83.9,3.18,3.18,0,0,1,1,2.45,3.11,3.11,0,0,1-1,2.43,4,4,0,0,1-2.81.89Zm3.94-3.32A1.83,1.83,0,0,0,60,5.2a2.37,2.37,0,0,0-1.66-.49H56.59V8.5h1.76C59.81,8.5,60.53,7.87,60.53,6.61Z"/><path class="cls-1" d="M70.37,11.8h-4.6l-.84,2.36H63.05l4-10.73h2l4,10.73H71.2Zm-.5-1.36-1.8-5.09-1.81,5.09Z"/><path class="cls-1" d="M82.59,4.17a5,5,0,0,1,1.8,2.77H82.52a3.37,3.37,0,0,0-1.23-1.57,3.52,3.52,0,0,0-2.06-.58,3.16,3.16,0,0,0-2.94,1.85,4.51,4.51,0,0,0-.44,2.07,4.49,4.49,0,0,0,.44,2.06,3.16,3.16,0,0,0,2.94,1.85A3.52,3.52,0,0,0,81.29,12a3.36,3.36,0,0,0,1.23-1.55h1.87a4.92,4.92,0,0,1-1.8,2.75,5.79,5.79,0,0,1-6.06.31,4.7,4.7,0,0,1-1.84-2A6.23,6.23,0,0,1,74,8.71a6.23,6.23,0,0,1,.65-2.88,4.79,4.79,0,0,1,1.84-2,5.79,5.79,0,0,1,6.06.31Z"/><path class="cls-1" d="M87.9,3.26v10.9H86.14V3.26Z"/><path class="cls-1" d="M91.8,4.68V8h4V9.35h-4v3.38h4.47v1.43H90V3.26h6.23V4.68Z"/><path class="cls-1" d="M106.8,14.16H105l-5.29-8v8H98V3.28h1.76L105,11.35V3.28h1.76Z"/><path class="cls-1" d="M115.94,3.26V4.68h-3v9.48h-1.77V4.68h-3V3.26Z"/><path class="cls-1" d="M119,4.68V8h4V9.35h-4v3.38h4.48v1.43h-6.23V3.26h6.23V4.68Z"/><path class="cls-1" d="M60,15.45V31.52a2.19,2.19,0,0,1-2.18,2.18H54.3V17.63a2.19,2.19,0,0,1,2.18-2.18Z"/><path class="cls-1" d="M78.47,29.22a8.29,8.29,0,0,1-3.31,3.28,10.09,10.09,0,0,1-5,1.2h-7.6V17.34a1.89,1.89,0,0,1,1.88-1.89h5.72a10.41,10.41,0,0,1,5,1.16,8.15,8.15,0,0,1,3.31,3.22,9.35,9.35,0,0,1,1.16,4.69A9.47,9.47,0,0,1,78.47,29.22ZM72.7,27.54a3.9,3.9,0,0,0,1.13-3,3.89,3.89,0,0,0-1.13-3,4.35,4.35,0,0,0-3.07-1.06H68.27V28.6h1.36A4.35,4.35,0,0,0,72.7,27.54Z"/><path class="cls-1" d="M87.36,20v2.27H93v2.65a1.65,1.65,0,0,1-1.65,1.65h-4v2.58h6.45V32a1.66,1.66,0,0,1-1.66,1.66H81.64V17.21a1.76,1.76,0,0,1,1.76-1.76H93.81v2.88A1.66,1.66,0,0,1,92.15,20Z"/><path class="cls-1" d="M107.62,30.94h-6.08L101,32.7a1.44,1.44,0,0,1-1.37,1h-5l6.18-16.88a2.09,2.09,0,0,1,2-1.37h5.13l6,16.42a1.37,1.37,0,0,1-1.28,1.83h-4.09Zm-1.39-4.3-1.65-5.08-1.65,5.08Z"/><path class="cls-1" d="M121.51,29.37h3.31v2.57a1.76,1.76,0,0,1-1.76,1.76h-7.27V17.21a1.76,1.76,0,0,1,1.75-1.76h4Z"/><path class="cls-1" d="M44.79,3.53Q41,0,34,0H13.26V6H17v8.73h8.8v8.18H17v8.73H13.26v6.2h16v-12H34a16.66,16.66,0,0,0,7.89-1.72,11.87,11.87,0,0,0,4.93-4.62A12.83,12.83,0,0,0,48.53,13,12.39,12.39,0,0,0,44.79,3.53ZM32.69,16.46H29.3v-7h3.39q3.72,0,3.72,3.48T32.69,16.46Z"/><polygon class="cls-1" points="13.27 6.2 13.27 6 8.8 6 8.8 14.73 0 14.73 0 22.91 8.8 22.91 8.8 31.64 13.27 31.64 13.27 31.21 13.27 6.2"/></g></g></svg>